<svg xmlns="http://www.w3.org/2000/svg" viewBox="0 0 223.45 423.88"><defs><style>.cls-1{fill:#f15a24;}.cls-1,.cls-2,.cls-3{stroke:#fff;stroke-miterlimit:10;}.cls-2{fill:#b7eee8;stroke-width:2px;}.cls-3{fill:#d2f9f4;}</style></defs><g id="Layer_2" data-name="Layer 2"><g id="Layer_2-2" data-name="Layer 2"><rect class="cls-1" x="52.27" y="343.16" width="120.2" height="40.25" rx="4.53" transform="translate(475.65 250.92) rotate(90)"/><polygon class="cls-2" points="111.46 10.29 4.73 314.02 220 314.02 111.46 10.29"/><polygon class="cls-3" points="222.52 307.96 210.95 279.14 189.85 267.43 183.35 273.1 192.98 294.34 222.52 307.96"/><polygon class="cls-3" points="216.09 285.84 204.52 257.02 183.42 245.31 176.91 250.98 186.54 272.23 216.09 285.84"/><polygon class="cls-3" points="208.04 260.29 196.48 231.47 175.38 219.76 168.88 225.43 178.5 246.68 208.04 260.29"/><polygon class="cls-3" points="199.72 234.6 188.15 205.78 167.05 194.08 160.55 199.75 170.18 220.99 199.72 234.6"/><polygon class="cls-3" points="193.28 211.67 181.72 182.85 160.62 171.15 154.11 176.81 163.74 198.06 193.28 211.67"/><polygon class="cls-3" points="186.74 186.94 175.18 158.12 154.07 146.41 147.57 152.08 157.2 173.32 186.74 186.94"/><polygon class="cls-3" points="180.13 162.15 168.57 133.33 147.47 121.63 140.96 127.3 150.59 148.54 180.13 162.15"/><polygon class="cls-3" points="173.7 140.04 162.13 111.22 141.03 99.51 134.53 105.18 144.16 126.42 173.7 140.04"/><polygon class="cls-3" points="165.66 114.49 154.1 85.67 132.99 73.96 126.49 79.63 136.12 100.88 165.66 114.49"/><polygon class="cls-3" points="157.33 88.8 145.77 59.98 124.66 48.27 118.16 53.94 127.79 75.19 157.33 88.8"/><polygon class="cls-3" points="150.9 65.87 139.33 37.05 118.23 25.34 111.73 31.01 121.36 52.26 150.9 65.87"/><polygon class="cls-3" points="144.35 41.13 132.79 12.31 111.69 0.61 105.18 6.28 114.81 27.52 144.35 41.13"/><polygon class="cls-3" points="0.93 308.77 12.49 279.95 33.6 268.25 40.1 273.92 30.47 295.16 0.93 308.77"/><polygon class="cls-3" points="7.36 286.65 18.93 257.83 40.03 246.13 46.53 251.8 36.9 273.04 7.36 286.65"/><polygon class="cls-3" points="15.4 261.1 26.97 232.28 48.07 220.58 54.57 226.25 44.94 247.49 15.4 261.1"/><polygon class="cls-3" points="23.73 235.42 35.3 206.6 56.4 194.89 62.9 200.56 53.27 221.8 23.73 235.42"/><polygon class="cls-3" points="30.16 212.48 41.73 183.66 62.83 171.96 69.33 177.63 59.7 198.87 30.16 212.48"/><polygon class="cls-3" points="36.71 187.75 48.27 158.93 69.38 147.22 75.88 152.89 66.25 174.14 36.71 187.75"/><polygon class="cls-3" points="43.32 162.97 54.88 134.15 75.98 122.44 82.49 128.11 72.86 149.36 43.32 162.97"/><polygon class="cls-3" points="49.75 140.85 61.31 112.03 82.42 100.33 88.92 106 79.29 127.24 49.75 140.85"/><polygon class="cls-3" points="57.79 115.3 69.35 86.48 90.45 74.78 96.96 80.45 87.33 101.69 57.79 115.3"/><polygon class="cls-3" points="66.12 89.61 77.68 60.79 98.78 49.09 105.29 54.76 95.66 76 66.12 89.61"/><polygon class="cls-3" points="72.55 66.68 84.11 37.86 105.22 26.16 111.72 31.83 102.09 53.07 72.55 66.68"/><polygon class="cls-3" points="79.09 41.95 90.66 13.13 111.76 1.42 118.27 7.09 108.64 28.34 79.09 41.95"/></g></g></svg>