<?xml version="1.0" encoding="UTF-8"?><svg xmlns="http://www.w3.org/2000/svg" viewBox="0 0 260.87 432.06"><defs><style>.d{fill:#b7eee8;stroke-width:2px;}.d,.e,.f{stroke:#fff;stroke-miterlimit:10;}.e{fill:#f15a24;}.f{fill:#d2f9f4;}</style></defs><g id="a"/><g id="b"><g id="c"><rect class="e" x="68.79" y="345.65" width="124.79" height="47.03" rx="4.53" ry="4.53" transform="translate(500.35 237.98) rotate(90)"/><polygon class="d" points="130.13 2.7 5.41 318.02 256.95 318.02 130.13 2.7"/><polygon class="f" points="259.9 311.73 246.38 281.81 221.73 269.66 214.13 275.54 225.38 297.6 259.9 311.73"/><polygon class="f" points="252.38 288.77 238.87 258.85 214.21 246.7 206.61 252.58 217.86 274.64 252.38 288.77"/><polygon class="f" points="242.99 262.24 229.47 232.32 204.82 220.17 197.22 226.06 208.47 248.11 242.99 262.24"/><polygon class="f" points="233.25 235.58 219.74 205.66 195.08 193.5 187.48 199.39 198.74 221.44 233.25 235.58"/><polygon class="f" points="225.74 211.77 212.23 181.85 187.57 169.7 179.97 175.58 191.22 197.64 225.74 211.77"/><polygon class="f" points="218.09 186.09 204.58 156.17 179.92 144.02 172.32 149.9 183.57 171.96 218.09 186.09"/><polygon class="f" points="210.37 160.36 196.86 130.44 172.2 118.29 164.6 124.18 175.85 146.23 210.37 160.36"/><polygon class="f" points="202.85 137.4 189.34 107.48 164.68 95.33 157.08 101.21 168.33 123.27 202.85 137.4"/><polygon class="f" points="193.46 110.88 179.95 80.96 155.29 68.8 147.69 74.69 158.94 96.74 193.46 110.88"/><polygon class="f" points="183.73 86.8 170.22 56.88 145.56 44.73 137.96 50.61 149.21 72.67 183.73 86.8"/><polygon class="f" points="176.21 62.99 162.7 33.07 138.04 20.92 130.44 26.81 141.7 48.86 176.21 62.99"/><polygon class="f" points=".97 312.58 14.48 282.66 39.14 270.5 46.74 276.39 35.49 298.44 .97 312.58"/><polygon class="f" points="8.49 289.61 22 259.69 46.66 247.54 54.26 253.43 43.01 275.48 8.49 289.61"/><polygon class="f" points="17.88 263.09 31.39 233.17 56.05 221.02 63.65 226.9 52.4 248.96 17.88 263.09"/><polygon class="f" points="27.62 236.42 41.13 206.5 65.79 194.35 73.39 200.23 62.13 222.29 27.62 236.42"/><polygon class="f" points="35.13 212.61 48.64 182.69 73.3 170.54 80.9 176.43 69.65 198.48 35.13 212.61"/><polygon class="f" points="42.78 186.93 56.29 157.02 80.95 144.86 88.55 150.75 77.3 172.8 42.78 186.93"/><polygon class="f" points="50.5 161.21 64.01 131.29 88.67 119.14 96.27 125.02 85.02 147.08 50.5 161.21"/><polygon class="f" points="58.02 138.25 71.53 108.33 96.19 96.17 103.79 102.06 92.53 124.11 58.02 138.25"/><polygon class="f" points="67.41 111.72 80.92 81.8 105.58 69.65 113.18 75.54 101.93 97.59 67.41 111.72"/><polygon class="f" points="77.15 87.64 90.66 57.72 115.32 45.57 122.92 51.46 111.67 73.51 77.15 87.64"/><polygon class="f" points="84.66 63.84 98.18 33.92 122.83 21.77 130.43 27.65 119.18 49.7 84.66 63.84"/></g></g></svg>